-
http:// www . torrentkit. com        
http:// www .torrentkit. com       the fast  and The Hottest Private Tracker on the net

Please Seed back to make the speed Faster!!!

and don't forget to visit      ...... www .torrentkit .com..........
-[align=center][IMG]http://img5.imageshack.us/img5/1889/howdoyouknowcover.jpg[/IMG]

** ** ** ** ** ** ** ** ** 

IMDB........ http://www.imdb.com/title/tt1341188/

** ** ** ** ** ** ** ** ** 

[b]PLOT[/b]

After being cut from the USA softball team and feeling a bit past her prime, Lisa finds herself evaluating her life and in the middle of a love triangle, as a corporate guy in crisis competes with her current, baseball-playing beau. 

** ** ** ** ** ** ** ** ** 

[b]AVI Information[/b]

Complete name : How.Do.You.Know.2010 480 BRRip Xvid AC3 - PRESTiGE.avi 
Format : AVI 
Format/Info : Audio Video Interleave 
Format profile : OpenDML 
Format settings : rec 
File size : 1.75 GiB 
Duration : 2h 0mn 
Overall bit rate : 2 073 Kbps 
Source: How.Do.You.Know.2010.720p.BluRay.x264-AVS720
Encoder: Twisted

[b]Video Stream[/b]

ID : 0 
Format : MPEG-4 Visual 
Format profile : Advanced Simple@L5 
Format settings, BVOP : 2 
Format settings, QPel : No 
Format settings, GMC : No warppoints 
Format settings, Matrix : Default (MPEG) 
Codec ID : XVID 
Codec ID/Hint : XviD 
Duration : 2h 0mn 
Bit rate : 1 620 Kbps 
Width : 720 pixels 
Height : 384 pixels 
Display aspect ratio : 1.875 
Frame rate : 23.976 fps 
Color space : YUV 
Chroma subsampling : 4:2:0 
Bit depth : 8 bits 
Scan type : Progressive 
Compression mode : Lossy 
Bits/(Pixel*Frame) : 0.244 
Stream size : 1.37 GiB (78%) 
Writing library : XviD 62 


[b]Audio Stream[/b]

ID : 1 
Format : AC-3 
Format/Info : Audio Coding 3 
Mode extension : CM (complete main) 
Codec ID : 2000 
Duration : 2h 0mn 
Bit rate mode : Constant 
Bit rate : 448 Kbps 
Channel(s) : 6 channels 
Channel positions : Front: L C R, Side: L R, LFE 
Sampling rate : 48.0 KHz 
Bit depth : 16 bits 
Compression mode : Lossy 
Stream size : 387 MiB (22%) 
Alignment : Aligned on interleaves 
Interleave, duration : 64 ms (1.53 video frames) 
Interleave, preload duration : 192 ms 
Title : English Audio 


** ** ** ** ** ** ** ** ** 

[b]Screens[/b]

[IMG]http://img696.imageshack.us/img696/4825/pic11q.png[/IMG]
[IMG]http://img196.imageshack.us/img196/4971/pic12s.png[/IMG]
[IMG]http://img641.imageshack.us/img641/777/pic13d.png[/IMG]
[IMG]http://img641.imageshack.us/img641/9106/pic14f.png[/IMG]
[IMG]http://img69.imageshack.us/img69/3216/pic15c.png[/IMG]
[IMG]http://img35.imageshack.us/img35/1263/pic16.png[/IMG]
[IMG]http://img38.imageshack.us/img38/3479/pic17z.png[/IMG]
[IMG]http://img684.imageshack.us/img684/949/pic18o.png[/IMG]

** ** ** ** ** ** ** ** **

Note

PRESTiGE - IS LOOKING FOR?: CAMMER'S, AUDIO SUPPLIERS, SYNCER'S, RETAIL SUPPLIER'S, SILVER'S, SCREENER'S, LINE CAPPER'S

ENCODER'S - ANYTHING AT ALL EMAIL US AT..... prestige@hushmail.me

** ** ** ** ** ** ** ** **

Greets Are Flying Out To:

[b]BmB,HiTM4N,BIGGUY,Demedic,DiLLoN,Imagine,CTFX,Jammo
Encoders Past And Present[/b]

** ** ** ** ** ** ** ** ** 

PRESTiGE is the level of respect at which one is regarded by others....RIzE Above Or Sink Below

[IMG]http://leetleech.org/images/83508160282003703104.png[/IMG][/align]